<svg xmlns="http://www.w3.org/2000/svg" viewBox="0 0 598.4 598.4">
  <circle cx="299.2" cy="299.2" r="294" stroke="black" stroke-width="10.32" fill="white" />
  <path d="M288.1 0H312v69.7h-23.9zM139.99 45.646l20.697-11.95 34.85 60.36-20.697 11.95zM34.507 159.213l11.95-20.698 60.36 34.85-11.95 20.698zM0 286.3h69.7v23.9H0zM45.685 458.4l-11.95-20.697 60.36-34.85 11.95 20.697zM159.177 563.854l-20.698-11.95 34.85-60.36 20.697 11.95zM286.3 528.7h23.9v69.7h-23.9zM458.41 552.728l-20.696 11.95-34.85-60.36 20.697-11.95zM563.803 439.128l-11.95 20.698-60.36-34.85 11.95-20.698zM528.7 288.1h69.7V312h-69.7zM552.767 139.98l11.95 20.696-60.36 34.85-11.95-20.697zM439.093 34.558l20.697 11.95-34.85 60.36-20.697-11.95z"/>
</svg>